<?xml version="1.0" encoding="utf-8"?>
<!-- Generator: Adobe Illustrator 27.8.1, SVG Export Plug-In . SVG Version: 6.00 Build 0)  -->
<svg version="1.1" id="Layer_1" xmlns="http://www.w3.org/2000/svg" xmlns:xlink="http://www.w3.org/1999/xlink" x="0px" y="0px"
	 viewBox="0 0 343 51" style="enable-background:new 0 0 343 51;" xml:space="preserve">
<style type="text/css">
	.st0{fill:#FFFFFF;}
	.st1{enable-background:new    ;}
	.st2{fill:#AAAAAA;}
</style>
<g id="mrz_frame" transform="translate(-23.5 -421.5)">
	<g id="Group_13" transform="translate(183.5 421.5)">
		<g id="Group_14" transform="translate(-159.5 0.5)">
			<g id="Path_62">
				<path class="st0" d="M0,7.5c-0.3,0-0.5-0.2-0.5-0.5V1.4c0-1,0.9-1.9,1.9-1.9H7c0.3,0,0.5,0.2,0.5,0.5S7.3,0.5,7,0.5H1.4
					c-0.5,0-0.9,0.4-0.9,0.9V7C0.5,7.3,0.3,7.5,0,7.5z"/>
			</g>
			<g id="Path_63">
				<path class="st0" d="M342,7.5c-0.3,0-0.5-0.2-0.5-0.5V1.4c0-0.5-0.4-0.9-0.9-0.9H335c-0.3,0-0.5-0.2-0.5-0.5s0.2-0.5,0.5-0.5
					h5.6c1.1,0,1.9,0.9,1.9,1.9V7C342.5,7.3,342.3,7.5,342,7.5z"/>
			</g>
			<g id="Path_64">
				<path class="st0" d="M7,50.5H1.4c-1.1,0-1.9-0.9-1.9-1.9V43c0-0.3,0.2-0.5,0.5-0.5s0.5,0.2,0.5,0.5v5.6c0,0.5,0.4,0.9,0.9,0.9H7
					c0.3,0,0.5,0.2,0.5,0.5S7.3,50.5,7,50.5z"/>
			</g>
			<g id="Path_65">
				<path class="st0" d="M340.6,50.5H335c-0.3,0-0.5-0.2-0.5-0.5s0.2-0.5,0.5-0.5h5.6c0.5,0,0.9-0.4,0.9-0.9V43
					c0-0.3,0.2-0.5,0.5-0.5s0.5,0.2,0.5,0.5v5.6C342.5,49.6,341.7,50.5,340.6,50.5z"/>
			</g>
		</g>
	</g>
	<g class="st1">
		<path class="st2" d="M49.6,443l-1.1-2.7h-3.4L44,443h-1l3.4-8.6h0.8l3.4,8.6H49.6z M48.2,439.4l-1-2.7c-0.1-0.3-0.3-0.7-0.4-1.2
			c-0.1,0.4-0.2,0.8-0.4,1.2l-1,2.7H48.2z"/>
		<path class="st2" d="M51.8,434.4h2.4c1.1,0,2,0.2,2.5,0.5s0.8,0.9,0.8,1.6c0,0.5-0.1,0.9-0.4,1.3s-0.7,0.5-1.2,0.6v0.1
			c1.3,0.2,2,0.9,2,2.1c0,0.8-0.3,1.4-0.8,1.8s-1.2,0.6-2.2,0.6h-3V434.4z M52.8,438.1h1.6c0.7,0,1.2-0.1,1.5-0.3s0.5-0.6,0.5-1.1
			c0-0.5-0.2-0.8-0.5-1s-0.9-0.3-1.6-0.3h-1.5V438.1z M52.8,438.9v3.2h1.8c0.7,0,1.2-0.1,1.6-0.4s0.5-0.7,0.5-1.3
			c0-0.5-0.2-0.9-0.5-1.2s-0.9-0.4-1.6-0.4H52.8z"/>
		<path class="st2" d="M63.2,435.2c-0.9,0-1.7,0.3-2.2,0.9s-0.8,1.5-0.8,2.6c0,1.1,0.3,2,0.8,2.6s1.3,0.9,2.2,0.9
			c0.6,0,1.3-0.1,2-0.3v0.9c-0.6,0.2-1.3,0.3-2.2,0.3c-1.3,0-2.2-0.4-2.9-1.1s-1-1.9-1-3.3c0-0.9,0.2-1.7,0.5-2.3s0.8-1.2,1.4-1.5
			s1.4-0.5,2.2-0.5c0.9,0,1.7,0.2,2.4,0.5l-0.4,0.9C64.5,435.4,63.9,435.2,63.2,435.2z"/>
		<path class="st2" d="M72.2,441.6l-5.6-2.5v-0.6l5.6-2.8v0.9l-4.6,2.2l4.6,1.9V441.6z"/>
		<path class="st2" d="M79,441.6l-5.6-2.5v-0.6l5.6-2.8v0.9l-4.6,2.2l4.6,1.9V441.6z"/>
		<path class="st2" d="M85.9,441.6l-5.6-2.5v-0.6l5.6-2.8v0.9l-4.6,2.2l4.6,1.9V441.6z"/>
		<path class="st2" d="M92.8,441.6l-5.6-2.5v-0.6l5.6-2.8v0.9l-4.6,2.2l4.6,1.9V441.6z"/>
		<path class="st2" d="M99.6,441.6l-5.6-2.5v-0.6l5.6-2.8v0.9l-4.6,2.2l4.6,1.9V441.6z"/>
		<path class="st2" d="M106.5,441.6l-5.6-2.5v-0.6l5.6-2.8v0.9l-4.6,2.2l4.6,1.9V441.6z"/>
		<path class="st2" d="M113.3,441.6l-5.6-2.5v-0.6l5.6-2.8v0.9l-4.6,2.2l4.6,1.9V441.6z"/>
		<path class="st2" d="M120.2,441.6l-5.6-2.5v-0.6l5.6-2.8v0.9l-4.6,2.2l4.6,1.9V441.6z"/>
		<path class="st2" d="M127.1,441.6l-5.6-2.5v-0.6l5.6-2.8v0.9l-4.6,2.2l4.6,1.9V441.6z"/>
		<path class="st2" d="M133.9,441.6l-5.6-2.5v-0.6l5.6-2.8v0.9l-4.6,2.2l4.6,1.9V441.6z"/>
		<path class="st2" d="M140.8,441.6l-5.6-2.5v-0.6l5.6-2.8v0.9l-4.6,2.2l4.6,1.9V441.6z"/>
		<path class="st2" d="M147.7,441.6l-5.6-2.5v-0.6l5.6-2.8v0.9l-4.6,2.2l4.6,1.9V441.6z"/>
		<path class="st2" d="M154.5,441.6l-5.6-2.5v-0.6l5.6-2.8v0.9l-4.6,2.2l4.6,1.9V441.6z"/>
		<path class="st2" d="M161.4,441.6l-5.6-2.5v-0.6l5.6-2.8v0.9l-4.6,2.2l4.6,1.9V441.6z"/>
		<path class="st2" d="M168.2,441.6l-5.6-2.5v-0.6l5.6-2.8v0.9l-4.6,2.2l4.6,1.9V441.6z"/>
		<path class="st2" d="M175.1,441.6l-5.6-2.5v-0.6l5.6-2.8v0.9l-4.6,2.2l4.6,1.9V441.6z"/>
		<path class="st2" d="M182,441.6l-5.6-2.5v-0.6l5.6-2.8v0.9l-4.6,2.2l4.6,1.9V441.6z"/>
		<path class="st2" d="M188.8,441.6l-5.6-2.5v-0.6l5.6-2.8v0.9l-4.6,2.2l4.6,1.9V441.6z"/>
		<path class="st2" d="M195.7,441.6l-5.6-2.5v-0.6l5.6-2.8v0.9l-4.6,2.2l4.6,1.9V441.6z"/>
		<path class="st2" d="M202.5,441.6l-5.6-2.5v-0.6l5.6-2.8v0.9l-4.6,2.2l4.6,1.9V441.6z"/>
		<path class="st2" d="M209.4,441.6l-5.6-2.5v-0.6l5.6-2.8v0.9l-4.6,2.2l4.6,1.9V441.6z"/>
		<path class="st2" d="M216.3,441.6l-5.6-2.5v-0.6l5.6-2.8v0.9l-4.6,2.2l4.6,1.9V441.6z"/>
		<path class="st2" d="M223.1,441.6l-5.6-2.5v-0.6l5.6-2.8v0.9l-4.6,2.2l4.6,1.9V441.6z"/>
		<path class="st2" d="M230,441.6l-5.6-2.5v-0.6l5.6-2.8v0.9l-4.6,2.2l4.6,1.9V441.6z"/>
		<path class="st2" d="M236.9,441.6l-5.6-2.5v-0.6l5.6-2.8v0.9l-4.6,2.2l4.6,1.9V441.6z"/>
		<path class="st2" d="M243.7,441.6l-5.6-2.5v-0.6l5.6-2.8v0.9l-4.6,2.2l4.6,1.9V441.6z"/>
		<path class="st2" d="M250.6,441.6l-5.6-2.5v-0.6l5.6-2.8v0.9l-4.6,2.2l4.6,1.9V441.6z"/>
		<path class="st2" d="M257.4,441.6l-5.6-2.5v-0.6l5.6-2.8v0.9l-4.6,2.2l4.6,1.9V441.6z"/>
		<path class="st2" d="M264.3,441.6l-5.6-2.5v-0.6l5.6-2.8v0.9l-4.6,2.2l4.6,1.9V441.6z"/>
		<path class="st2" d="M271.2,441.6l-5.6-2.5v-0.6l5.6-2.8v0.9l-4.6,2.2l4.6,1.9V441.6z"/>
		<path class="st2" d="M278,441.6l-5.6-2.5v-0.6l5.6-2.8v0.9l-4.6,2.2l4.6,1.9V441.6z"/>
		<path class="st2" d="M284.9,441.6l-5.6-2.5v-0.6l5.6-2.8v0.9l-4.6,2.2l4.6,1.9V441.6z"/>
		<path class="st2" d="M291.7,441.6l-5.6-2.5v-0.6l5.6-2.8v0.9l-4.6,2.2l4.6,1.9V441.6z"/>
		<path class="st2" d="M298.6,441.6l-5.6-2.5v-0.6l5.6-2.8v0.9l-4.6,2.2l4.6,1.9V441.6z"/>
		<path class="st2" d="M305.5,441.6l-5.6-2.5v-0.6l5.6-2.8v0.9l-4.6,2.2l4.6,1.9V441.6z"/>
		<path class="st2" d="M312.3,441.6l-5.6-2.5v-0.6l5.6-2.8v0.9l-4.6,2.2l4.6,1.9V441.6z"/>
		<path class="st2" d="M319.2,441.6l-5.6-2.5v-0.6l5.6-2.8v0.9l-4.6,2.2l4.6,1.9V441.6z"/>
		<path class="st2" d="M326,441.6l-5.6-2.5v-0.6l5.6-2.8v0.9l-4.6,2.2l4.6,1.9V441.6z"/>
		<path class="st2" d="M332.9,441.6l-5.6-2.5v-0.6l5.6-2.8v0.9l-4.6,2.2l4.6,1.9V441.6z"/>
		<path class="st2" d="M339.8,441.6l-5.6-2.5v-0.6l5.6-2.8v0.9l-4.6,2.2l4.6,1.9V441.6z"/>
		<path class="st2" d="M346.6,441.6l-5.6-2.5v-0.6l5.6-2.8v0.9l-4.6,2.2l4.6,1.9V441.6z"/>
	</g>
	<g class="st1">
		<path class="st2" d="M49.6,460l-1.1-2.7h-3.4L44,460h-1l3.4-8.6h0.8l3.4,8.6H49.6z M48.2,456.4l-1-2.7c-0.1-0.3-0.3-0.7-0.4-1.2
			c-0.1,0.4-0.2,0.8-0.4,1.2l-1,2.7H48.2z"/>
		<path class="st2" d="M51.8,451.4h2.4c1.1,0,2,0.2,2.5,0.5s0.8,0.9,0.8,1.6c0,0.5-0.1,0.9-0.4,1.3s-0.7,0.5-1.2,0.6v0.1
			c1.3,0.2,2,0.9,2,2.1c0,0.8-0.3,1.4-0.8,1.8s-1.2,0.6-2.2,0.6h-3V451.4z M52.8,455.1h1.6c0.7,0,1.2-0.1,1.5-0.3s0.5-0.6,0.5-1.1
			c0-0.5-0.2-0.8-0.5-1s-0.9-0.3-1.6-0.3h-1.5V455.1z M52.8,455.9v3.2h1.8c0.7,0,1.2-0.1,1.6-0.4s0.5-0.7,0.5-1.3
			c0-0.5-0.2-0.9-0.5-1.2s-0.9-0.4-1.6-0.4H52.8z"/>
		<path class="st2" d="M63.2,452.2c-0.9,0-1.7,0.3-2.2,0.9s-0.8,1.5-0.8,2.6c0,1.1,0.3,2,0.8,2.6s1.3,0.9,2.2,0.9
			c0.6,0,1.3-0.1,2-0.3v0.9c-0.6,0.2-1.3,0.3-2.2,0.3c-1.3,0-2.2-0.4-2.9-1.1s-1-1.9-1-3.3c0-0.9,0.2-1.7,0.5-2.3s0.8-1.2,1.4-1.5
			s1.4-0.5,2.2-0.5c0.9,0,1.7,0.2,2.4,0.5l-0.4,0.9C64.5,452.4,63.9,452.2,63.2,452.2z"/>
		<path class="st2" d="M72.2,458.6l-5.6-2.5v-0.6l5.6-2.8v0.9l-4.6,2.2l4.6,1.9V458.6z"/>
		<path class="st2" d="M79,458.6l-5.6-2.5v-0.6l5.6-2.8v0.9l-4.6,2.2l4.6,1.9V458.6z"/>
		<path class="st2" d="M85.9,458.6l-5.6-2.5v-0.6l5.6-2.8v0.9l-4.6,2.2l4.6,1.9V458.6z"/>
		<path class="st2" d="M92.8,458.6l-5.6-2.5v-0.6l5.6-2.8v0.9l-4.6,2.2l4.6,1.9V458.6z"/>
		<path class="st2" d="M99.6,458.6l-5.6-2.5v-0.6l5.6-2.8v0.9l-4.6,2.2l4.6,1.9V458.6z"/>
		<path class="st2" d="M106.5,458.6l-5.6-2.5v-0.6l5.6-2.8v0.9l-4.6,2.2l4.6,1.9V458.6z"/>
		<path class="st2" d="M113.3,458.6l-5.6-2.5v-0.6l5.6-2.8v0.9l-4.6,2.2l4.6,1.9V458.6z"/>
		<path class="st2" d="M120.2,458.6l-5.6-2.5v-0.6l5.6-2.8v0.9l-4.6,2.2l4.6,1.9V458.6z"/>
		<path class="st2" d="M127.1,458.6l-5.6-2.5v-0.6l5.6-2.8v0.9l-4.6,2.2l4.6,1.9V458.6z"/>
		<path class="st2" d="M133.9,458.6l-5.6-2.5v-0.6l5.6-2.8v0.9l-4.6,2.2l4.6,1.9V458.6z"/>
		<path class="st2" d="M140.8,458.6l-5.6-2.5v-0.6l5.6-2.8v0.9l-4.6,2.2l4.6,1.9V458.6z"/>
		<path class="st2" d="M147.7,458.6l-5.6-2.5v-0.6l5.6-2.8v0.9l-4.6,2.2l4.6,1.9V458.6z"/>
		<path class="st2" d="M154.5,458.6l-5.6-2.5v-0.6l5.6-2.8v0.9l-4.6,2.2l4.6,1.9V458.6z"/>
		<path class="st2" d="M161.4,458.6l-5.6-2.5v-0.6l5.6-2.8v0.9l-4.6,2.2l4.6,1.9V458.6z"/>
		<path class="st2" d="M168.2,458.6l-5.6-2.5v-0.6l5.6-2.8v0.9l-4.6,2.2l4.6,1.9V458.6z"/>
		<path class="st2" d="M175.1,458.6l-5.6-2.5v-0.6l5.6-2.8v0.9l-4.6,2.2l4.6,1.9V458.6z"/>
		<path class="st2" d="M182,458.6l-5.6-2.5v-0.6l5.6-2.8v0.9l-4.6,2.2l4.6,1.9V458.6z"/>
		<path class="st2" d="M188.8,458.6l-5.6-2.5v-0.6l5.6-2.8v0.9l-4.6,2.2l4.6,1.9V458.6z"/>
		<path class="st2" d="M195.7,458.6l-5.6-2.5v-0.6l5.6-2.8v0.9l-4.6,2.2l4.6,1.9V458.6z"/>
		<path class="st2" d="M202.5,458.6l-5.6-2.5v-0.6l5.6-2.8v0.9l-4.6,2.2l4.6,1.9V458.6z"/>
		<path class="st2" d="M209.4,458.6l-5.6-2.5v-0.6l5.6-2.8v0.9l-4.6,2.2l4.6,1.9V458.6z"/>
		<path class="st2" d="M216.3,458.6l-5.6-2.5v-0.6l5.6-2.8v0.9l-4.6,2.2l4.6,1.9V458.6z"/>
		<path class="st2" d="M223.1,458.6l-5.6-2.5v-0.6l5.6-2.8v0.9l-4.6,2.2l4.6,1.9V458.6z"/>
		<path class="st2" d="M230,458.6l-5.6-2.5v-0.6l5.6-2.8v0.9l-4.6,2.2l4.6,1.9V458.6z"/>
		<path class="st2" d="M236.9,458.6l-5.6-2.5v-0.6l5.6-2.8v0.9l-4.6,2.2l4.6,1.9V458.6z"/>
		<path class="st2" d="M243.7,458.6l-5.6-2.5v-0.6l5.6-2.8v0.9l-4.6,2.2l4.6,1.9V458.6z"/>
		<path class="st2" d="M250.6,458.6l-5.6-2.5v-0.6l5.6-2.8v0.9l-4.6,2.2l4.6,1.9V458.6z"/>
		<path class="st2" d="M257.4,458.6l-5.6-2.5v-0.6l5.6-2.8v0.9l-4.6,2.2l4.6,1.9V458.6z"/>
		<path class="st2" d="M264.3,458.6l-5.6-2.5v-0.6l5.6-2.8v0.9l-4.6,2.2l4.6,1.9V458.6z"/>
		<path class="st2" d="M271.2,458.6l-5.6-2.5v-0.6l5.6-2.8v0.9l-4.6,2.2l4.6,1.9V458.6z"/>
		<path class="st2" d="M278,458.6l-5.6-2.5v-0.6l5.6-2.8v0.9l-4.6,2.2l4.6,1.9V458.6z"/>
		<path class="st2" d="M284.9,458.6l-5.6-2.5v-0.6l5.6-2.8v0.9l-4.6,2.2l4.6,1.9V458.6z"/>
		<path class="st2" d="M291.7,458.6l-5.6-2.5v-0.6l5.6-2.8v0.9l-4.6,2.2l4.6,1.9V458.6z"/>
		<path class="st2" d="M298.6,458.6l-5.6-2.5v-0.6l5.6-2.8v0.9l-4.6,2.2l4.6,1.9V458.6z"/>
		<path class="st2" d="M305.5,458.6l-5.6-2.5v-0.6l5.6-2.8v0.9l-4.6,2.2l4.6,1.9V458.6z"/>
		<path class="st2" d="M312.3,458.6l-5.6-2.5v-0.6l5.6-2.8v0.9l-4.6,2.2l4.6,1.9V458.6z"/>
		<path class="st2" d="M319.2,458.6l-5.6-2.5v-0.6l5.6-2.8v0.9l-4.6,2.2l4.6,1.9V458.6z"/>
		<path class="st2" d="M326,458.6l-5.6-2.5v-0.6l5.6-2.8v0.9l-4.6,2.2l4.6,1.9V458.6z"/>
		<path class="st2" d="M332.9,458.6l-5.6-2.5v-0.6l5.6-2.8v0.9l-4.6,2.2l4.6,1.9V458.6z"/>
		<path class="st2" d="M339.8,458.6l-5.6-2.5v-0.6l5.6-2.8v0.9l-4.6,2.2l4.6,1.9V458.6z"/>
		<path class="st2" d="M346.6,458.6l-5.6-2.5v-0.6l5.6-2.8v0.9l-4.6,2.2l4.6,1.9V458.6z"/>
	</g>
</g>
</svg>