<svg xmlns="http://www.w3.org/2000/svg" width="14" height="24" viewBox="0 0 14 24">
    <defs>
    <clipPath id="clip-path">
        <rect id="Rectangle_559" data-name="Rectangle 559" width="14" height="24" fill="none" stroke="#fff" stroke-width="1"/>
    </clipPath>
    </defs>
    <g id="Group_182" data-name="Group 182" transform="translate(0 0)">
    <g id="Group_180" data-name="Group 180" transform="translate(0 0)" clip-path="url(#clip-path)">
        <path id="Path_882" data-name="Path 882" d="M.5,1.1V6.892A.2.2,0,0,0,.535,7l2.458,3.566a.2.2,0,0,1,.035.113v11.79a1,1,0,0,0,1,1l5.943.029a1,1,0,0,0,1.005-1V10.683a.2.2,0,0,1,.035-.113L13.465,7a.2.2,0,0,0,.035-.114V1.1a.6.6,0,0,0-.6-.6H1.1A.6.6,0,0,0,.5,1.1Z" transform="translate(0 -0.001)" fill="none" stroke="#fff" stroke-miterlimit="10" stroke-width="1"/>
        <line id="Line_35" data-name="Line 35" x1="13" transform="translate(0.5 4.792)" fill="none" stroke="#fff" stroke-miterlimit="10" stroke-width="1"/>
        <line id="Line_36" data-name="Line 36" y2="5.942" transform="translate(7 8.58)" fill="none" stroke="#fff" stroke-miterlimit="10" stroke-width="1"/>
    </g>
    </g>
</svg>