<svg xmlns="http://www.w3.org/2000/svg" width="11.915" height="27" viewBox="0 0 11.915 27">
    <defs>
    <clipPath id="clip-path">
        <rect id="Rectangle_568" data-name="Rectangle 568" width="11.915" height="27" fill="none"/>
    </clipPath>
    </defs>
    <g id="Group_198" data-name="Group 198" transform="translate(0 0)">
    <g id="Group_197" data-name="Group 197" transform="translate(0 0)" clip-path="url(#clip-path)">
        <path id="Path_888" data-name="Path 888" d="M11.365,6.459H.55A.55.55,0,0,0,0,7.008V9.935H11.915V7.008a.55.55,0,0,0-.55-.549" transform="translate(0 -0.539)" fill="#fe8e14"/>
        <path id="Path_889" data-name="Path 889" d="M0,12.717a.18.18,0,0,0,.032.1l2.253,3.268a.182.182,0,0,1,.032.1V27a.916.916,0,0,0,.912.916l5.448.027a.916.916,0,0,0,.921-.916V16.191a.182.182,0,0,1,.032-.1l2.253-3.271a.184.184,0,0,0,.032-.1V11.252H0Zm5.5,1.549h.917V19.71H5.5Z" transform="translate(0 -0.939)" fill="#fe8e14"/>
        <line id="Line_50" data-name="Line 50" x2="2.75" y2="2.75" transform="translate(0.719 1.2)" fill="none" stroke="#fe8e14" stroke-width="1"/>
        <line id="Line_51" data-name="Line 51" y2="3.949" transform="translate(5.957 0)" fill="none" stroke="#fe8e14" stroke-width="1"/>
        <line id="Line_52" data-name="Line 52" x1="2.75" y2="2.75" transform="translate(8.447 1.2)" fill="none" stroke="#fe8e14" stroke-width="1"/>
    </g>
    </g>
</svg>