<svg xmlns="http://www.w3.org/2000/svg" xmlns:xlink="http://www.w3.org/1999/xlink" width="163.335" height="40" viewBox="0 0 163.335 40">
  <defs>
    <clipPath id="clip-path">
      <rect id="Rectangle_4" data-name="Rectangle 4" width="163.335" height="40" fill="none"/>
    </clipPath>
  </defs>
  <g id="dynamsoft-logo" transform="translate(88.008 21.553)">
    <g id="Group_8" data-name="Group 8" transform="translate(-88.008 -21.553)">
      <path id="Path_46" data-name="Path 46" d="M219.3,0l2.512,6.521L224.324,0Z" transform="translate(-102.09)" fill="#323234"/>
      <g id="Group_7" data-name="Group 7" clip-path="url(#clip-path)">
        <path id="Path_47" data-name="Path 47" d="M0,10.1H7.162c4.971,0,7.59,2.726,7.59,8.445V29.662c0,5.719-2.619,8.445-7.59,8.445H0ZM4.81,34.151H6.467c2.565,0,3.474-.962,3.474-3.9V18.01c0-2.94-.909-3.9-3.474-3.9H4.81Z" transform="translate(0 -4.702)" fill="#323234"/>
        <path id="Path_48" data-name="Path 48" d="M42.641,23.5h4.383L41.572,45.948c-.909,3.795-2.672,5.024-5.933,5.024H33.769V47.391h1.069c2.191,0,2.886-1.176,2.886-3.367a10.8,10.8,0,0,0-.481-2.779L32.7,23.5h4.436l2.779,13.362h.053Z" transform="translate(-15.223 -10.94)" fill="#323234"/>
        <path id="Path_49" data-name="Path 49" d="M64.1,44.072v-20.9h4.115v2.084c1.817-1.55,2.779-2.459,5.291-2.459s3.634,1.657,3.634,4.383V44.072H72.812V27.877a1.39,1.39,0,0,0-1.55-1.5,5.114,5.114,0,0,0-2.779,1.336V44.072Z" transform="translate(-29.84 -10.614)" fill="#323234"/>
        <path id="Path_50" data-name="Path 50" d="M95.221,29.321c.214-4.222,2.886-6.521,7-6.521s6.307,1.871,6.307,5.665V41.827a14.863,14.863,0,0,0,.267,2.191h-4.169c-.053-.588-.214-1.122-.214-1.657a7.385,7.385,0,0,1-5.077,2.031c-2.94,0-4.436-2.031-4.436-4.7,0-4.6,3.046-7.108,9.3-9.46V29.053c0-1.764-.695-2.672-2.138-2.672s-2.405,1.176-2.459,2.94Zm8.979,4.169c-3.955,2.245-4.917,3.688-4.917,5.505s.695,1.924,2.031,1.924a3.565,3.565,0,0,0,2.886-1.924Z" transform="translate(-44.178 -10.614)" fill="#323234"/>
        <path id="Path_51" data-name="Path 51" d="M137.305,44.072V27.877a1.39,1.39,0,0,0-1.5-1.5,5.114,5.114,0,0,0-2.779,1.336V44.072H128.7v-20.9h4.115v2.084c1.817-1.55,2.779-2.459,4.81-2.459s2.886.8,3.795,2.459c2.084-2.031,3.26-2.459,4.864-2.459,2.726,0,4.062,1.657,4.062,4.383V44.072h-4.383V27.877a1.39,1.39,0,0,0-1.55-1.5,5.114,5.114,0,0,0-2.779,1.336V44.072Z" transform="translate(-59.913 -10.614)" fill="#323234"/>
        <path id="Path_52" data-name="Path 52" d="M291.169,51.562H290.1V50.6h3.207v.962h-1.069v5.452h-1.069Z" transform="translate(-135.049 -23.556)" fill="#323234"/>
        <path id="Path_53" data-name="Path 53" d="M301.69,50.6v6.414h-.962V51.99h0l-1.016,5.024h-.534l-1.016-5.024h0v5.024H297.2V50.6h1.443l.8,3.741h0l.8-3.741Z" transform="translate(-138.355 -23.556)" fill="#323234"/>
        <path id="Path_54" data-name="Path 54" d="M183.979,28.853c-.321-1.657-1.069-2.619-2.459-2.619s-1.924.588-1.924,1.657c0,3.26,8.124,4.6,8.124,10.8,0,3.741-2.565,5.612-6.093,5.612s-5.986-2.191-6.627-5.826l3.795-1.069c.267,1.764.909,3.314,2.886,3.314a1.764,1.764,0,0,0,1.924-1.817c0-3.634-8.124-4.971-8.124-10.689a5.564,5.564,0,0,1,5.826-5.612,6.474,6.474,0,0,1,6.36,5.559Z" transform="translate(-81.467 -10.521)" fill="#fe8e14"/>
        <path id="Path_55" data-name="Path 55" d="M248.865,20.517H246.3V16.936h2.566V14.317c0-3.367,1.764-4.917,4.864-4.917h2.191v3.581h-1.229c-1.069,0-1.443.374-1.443,1.39v2.565h2.459v3.581h-2.459V37.834h-4.329Z" transform="translate(-114.659 -4.376)" fill="#fe8e14"/>
        <path id="Path_56" data-name="Path 56" d="M266.5,22.193V18.612h2.405V13h4.329v5.612h2.886v3.581h-2.886V34.219c0,1.069.481,1.71,1.5,1.71h1.443V39.67a7.482,7.482,0,0,1-2.191.214c-3.26,0-5.078-1.5-5.078-4.7V22.193Z" transform="translate(-124.063 -6.052)" fill="#fe8e14"/>
        <path id="Path_57" data-name="Path 57" d="M212.853,26.429V22.1a11.17,11.17,0,0,0-9.353,9.353h4.329a6.948,6.948,0,0,1,5.077-5.077" transform="translate(-94.735 -10.288)" fill="#fe8e14"/>
        <path id="Path_58" data-name="Path 58" d="M227,26.429a6.948,6.948,0,0,1,5.078,5.077h4.329A11.171,11.171,0,0,0,227,22.1Z" transform="translate(-105.674 -10.288)" fill="#fe8e14"/>
        <path id="Path_59" data-name="Path 59" d="M212.807,50.677a6.948,6.948,0,0,1-5.078-5.077H203.4a11.171,11.171,0,0,0,9.407,9.407Z" transform="translate(-94.688 -21.228)" fill="#fe8e14"/>
        <path id="Path_60" data-name="Path 60" d="M226.953,50.724v4.329a11.171,11.171,0,0,0,9.353-9.353h-4.329a6.948,6.948,0,0,1-5.077,5.078" transform="translate(-105.628 -21.275)" fill="#fe8e14"/>
      </g>
    </g>
  </g>
</svg>
